M48
; DRILL file {KiCad 7.0.7} date 2024 May 25, Saturday 03:05:55
; FORMAT={-:-/ absolute / inch / decimal}
; #@! TF.CreationDate,2024-05-25T03:05:55-04:00
; #@! TF.GenerationSoftware,Kicad,Pcbnew,7.0.7
; #@! TF.FileFunction,MixedPlating,1,2
FMAT,2
INCH
; #@! TA.AperFunction,Plated,PTH,ViaDrill
T1C0.0118
; #@! TA.AperFunction,Plated,PTH,ComponentDrill
T2C0.0394
; #@! TA.AperFunction,Plated,PTH,ComponentDrill
T3C0.0433
; #@! TA.AperFunction,NonPlated,NPTH,ComponentDrill
T4C0.0256
; #@! TA.AperFunction,NonPlated,NPTH,ComponentDrill
T5C0.0433
; #@! TA.AperFunction,NonPlated,NPTH,ComponentDrill
T6C0.0512
; #@! TA.AperFunction,NonPlated,NPTH,ComponentDrill
T7C0.0610
; #@! TA.AperFunction,NonPlated,NPTH,ComponentDrill
T8C0.0807
; #@! TA.AperFunction,NonPlated,NPTH,ComponentDrill
T9C0.0984
%
G90
G05
T1
X6.374Y-3.1565
X6.374Y-3.186
X6.374Y-3.2155
X6.374Y-3.2451
X6.374Y-3.2746
X6.374Y-3.3041
X6.374Y-3.3337
X6.374Y-3.3632
X6.376Y-4.251
X6.3819Y-4.9686
X6.3937Y-5.2431
X6.4035Y-3.1565
X6.4035Y-3.186
X6.4035Y-3.2155
X6.4035Y-3.2451
X6.4035Y-3.2746
X6.4035Y-3.3041
X6.4035Y-3.3337
X6.4035Y-3.3632
X6.4232Y-5.2431
X6.4232Y-5.5187
X6.4882Y-4.44
X6.4961Y-4.0453
X6.4961Y-4.0748
X6.4961Y-4.1043
X6.4961Y-4.1339
X6.502Y-4.8809
X6.5059Y-4.9478
X6.5217Y-5.5659
X6.5354Y-5.1329
X6.5413Y-4.4321
X6.5433Y-4.6407
X6.5513Y-4.462
X6.5571Y-4.7628
X6.5624Y-3.0325
X6.565Y-5.1329
X6.565Y-5.2352
X6.5866Y-4.4321
X6.5886Y-4.6407
X6.5965Y-5.2352
X6.6087Y-4.8159
X6.6161Y-3.6801
X6.6161Y-5.3848
X6.6314Y-4.8435
X6.6378Y-4.9577
X6.6535Y-3.0582
X6.6594Y-2.9754
X6.6673Y-5.4636
X6.6732Y-4.9655
X6.6792Y-3.0364
X6.6988Y-4.4852
X6.6988Y-4.5738
X6.6988Y-4.6624
X6.6988Y-4.751
X6.7028Y-2.684
X6.7028Y-2.7116
X6.7067Y-5.0226
X6.7183Y-3.0393
X6.7185Y-3.8356
X6.7323Y-2.684
X6.7323Y-2.7116
X6.7421Y-5.1781
X6.7559Y-2.8415
X6.7559Y-2.9675
X6.7618Y-2.684
X6.7618Y-2.7116
X6.7776Y-5.2943
X6.7815Y-3.31
X6.7854Y-2.8415
X6.7854Y-2.9675
X6.7913Y-2.684
X6.7913Y-2.7116
X6.8071Y-5.0029
X6.815Y-2.8415
X6.815Y-2.9675
X6.8209Y-2.684
X6.8209Y-2.7116
X6.8346Y-4.9872
X6.8366Y-4.44
X6.8445Y-2.8415
X6.8445Y-2.9675
X6.8484Y-5.2943
X6.8504Y-2.684
X6.8504Y-2.7116
X6.8602Y-4.4163
X6.8681Y-3.8455
X6.8799Y-2.684
X6.8799Y-2.7116
X6.8799Y-4.7835
X6.8839Y-3.3337
X6.8922Y-4.5586
X6.9035Y-3.3966
X6.9094Y-2.684
X6.9094Y-2.7116
X6.9094Y-4.7539
X6.9114Y-5.4793
X6.9154Y-4.3612
X6.9193Y-4.5325
X6.9311Y-3.3966
X6.939Y-2.684
X6.939Y-2.7116
X6.9391Y-4.7137
X6.9469Y-4.1781
X6.9587Y-3.6092
X6.9587Y-3.6486
X6.9587Y-3.688
X6.9587Y-4.5462
X6.9665Y-5.251
X6.9685Y-2.684
X6.9685Y-2.7116
X6.9744Y-4.7077
X6.9746Y-5.6375
X6.9823Y-4.251
X6.9843Y-5.562
X6.9882Y-4.5923
X6.998Y-2.684
X6.998Y-2.7116
X7.0083Y-4.5722
X7.0111Y-4.6742
X7.0138Y-3.747
X7.0138Y-4.4025
X7.0138Y-4.4419
X7.0157Y-4.7053
X7.0164Y-4.4744
X7.0177Y-5.5776
X7.0413Y-3.0856
X7.0413Y-3.1722
X7.0512Y-4.4781
X7.061Y-5.4655
X7.0689Y-3.0856
X7.0689Y-3.1722
X7.0689Y-4.0325
X7.0689Y-5.6762
X7.0731Y-4.0853
X7.0768Y-5.0226
X7.0965Y-3.0856
X7.0965Y-3.1722
X7.0965Y-4.7343
X7.0965Y-5.3297
X7.0974Y-3.9101
X7.1004Y-4.5322
X7.1024Y-5.5266
X7.1043Y-4.4793
X7.1161Y-4.7047
X7.1181Y-5.2195
X7.122Y-3.5305
X7.122Y-3.562
X7.123Y-3.8845
X7.124Y-3.0856
X7.124Y-3.1722
X7.126Y-4.5101
X7.128Y-3.2943
X7.1319Y-4.4557
X7.1365Y-4.6296
X7.1516Y-3.1722
X7.1516Y-3.5305
X7.1516Y-3.562
X7.1581Y-4.161
X7.1713Y-5.0778
X7.1739Y-5.6742
X7.1752Y-4.1919
X7.1752Y-4.7146
X7.1752Y-4.8228
X7.1811Y-3.5305
X7.1811Y-3.562
X7.187Y-4.1486
X7.187Y-5.5776
X7.1871Y-4.5108
X7.1988Y-4.9636
X7.2028Y-3.9203
X7.2028Y-5.7213
X7.2039Y-5.2993
X7.2047Y-4.7933
X7.2264Y-5.499
X7.2323Y-5.1978
X7.2382Y-4.0817
X7.2461Y-5.7196
X7.247Y-3.8337
X7.2481Y-4.1116
X7.2508Y-5.6447
X7.2795Y-5.5344
X7.2854Y-4.2155
X7.2992Y-3.4616
X7.2992Y-3.4911
X7.2992Y-3.5305
X7.2992Y-3.56
X7.2992Y-4.9675
X7.3031Y-3.7962
X7.3075Y-3.7377
X7.3228Y-4.8031
X7.3248Y-4.7195
X7.3287Y-3.4616
X7.3287Y-3.4911
X7.3287Y-3.5305
X7.3287Y-3.56
X7.3287Y-4.9675
X7.3396Y-3.8012
X7.3445Y-3.6289
X7.3445Y-3.6978
X7.3502Y-4.4281
X7.3524Y-4.3494
X7.3563Y-4.2588
X7.3583Y-3.4616
X7.3583Y-3.4911
X7.3583Y-3.5305
X7.3583Y-3.56
X7.3602Y-4.7087
X7.3795Y-4.3734
X7.3839Y-3.7175
X7.3878Y-4.9675
X7.3996Y-5.4951
X7.4016Y-4.813
X7.4154Y-5.2244
X7.4173Y-4.9675
X7.447Y-4.7691
X7.4558Y-4.4196
X7.4685Y-4.2923
X7.4782Y-4.6333
X7.4783Y-4.4872
X7.5108Y-3.6043
X7.5177Y-4.3277
X7.5285Y-5.4203
X7.5354Y-4.9478
X7.5354Y-5.0029
X7.5354Y-5.1348
X7.5571Y-5.7825
X7.5866Y-5.7825
X7.5945Y-3.1565
X7.5945Y-3.186
X7.6004Y-4.3783
X7.6004Y-4.5555
X7.6004Y-4.7327
X7.6161Y-5.7825
X7.624Y-3.1565
X7.624Y-3.186
X7.6319Y-4.4846
X7.6319Y-4.6716
X7.6319Y-4.8291
X7.6535Y-3.1565
X7.6535Y-3.186
X7.6831Y-3.1565
X7.6831Y-3.186
X7.7126Y-3.1565
X7.7183Y-4.6916
X7.7187Y-4.514
X7.7189Y-4.3379
X7.7697Y-4.7573
X7.772Y-4.8291
X7.7815Y-4.9577
X7.7815Y-4.9872
X7.7815Y-5.0167
X7.811Y-4.9577
X7.811Y-4.9872
X7.811Y-5.0167
X7.8406Y-4.9577
X7.8406Y-4.9872
X7.8406Y-5.0167
T2
X6.4035Y-4.3104
X6.4035Y-4.4104
X6.4035Y-4.5104
X6.4035Y-4.6104
X6.4035Y-4.7104
X6.4035Y-4.8104
X6.4035Y-4.9104
X6.813Y-4.8919
X6.913Y-4.8919
X7.013Y-4.8919
X7.113Y-4.8919
X7.213Y-4.8919
X7.313Y-4.8919
X7.413Y-4.8919
X7.6352Y-4.8927
X7.7352Y-4.8927
T3
X7.7323Y-3.0777
X7.7323Y-3.2155
X7.7323Y-3.3533
X7.7323Y-3.4911
X7.7323Y-3.6289
X7.7323Y-3.7667
X7.7323Y-3.9045
X7.7323Y-4.0423
X7.7323Y-4.1801
T4
X6.9984Y-5.6623
X7.226Y-5.6623
T5
X6.8071Y-5.3376
T6
X6.6299Y-5.3376
T8
X6.7087Y-5.3376
T9
X6.4626Y-2.7835
X6.4626Y-5.7943
X7.7618Y-2.7874
X7.7618Y-5.7943
T7
G00X6.7087Y-5.5
M15
G01X6.7087Y-5.5295
M16
G05
T0
M30
