%TF.GenerationSoftware,KiCad,Pcbnew,7.0.7*%
%TF.CreationDate,2024-05-25T17:21:06-04:00*%
%TF.ProjectId,AxxSolder,41787853-6f6c-4646-9572-2e6b69636164,rev?*%
%TF.SameCoordinates,Original*%
%TF.FileFunction,Soldermask,Bot*%
%TF.FilePolarity,Negative*%
%FSLAX46Y46*%
G04 Gerber Fmt 4.6, Leading zero omitted, Abs format (unit mm)*
G04 Created by KiCad (PCBNEW 7.0.7) date 2024-05-25 17:21:06*
%MOMM*%
%LPD*%
G01*
G04 APERTURE LIST*
G04 Aperture macros list*
%AMRoundRect*
0 Rectangle with rounded corners*
0 $1 Rounding radius*
0 $2 $3 $4 $5 $6 $7 $8 $9 X,Y pos of 4 corners*
0 Add a 4 corners polygon primitive as box body*
4,1,4,$2,$3,$4,$5,$6,$7,$8,$9,$2,$3,0*
0 Add four circle primitives for the rounded corners*
1,1,$1+$1,$2,$3*
1,1,$1+$1,$4,$5*
1,1,$1+$1,$6,$7*
1,1,$1+$1,$8,$9*
0 Add four rect primitives between the rounded corners*
20,1,$1+$1,$2,$3,$4,$5,0*
20,1,$1+$1,$4,$5,$6,$7,0*
20,1,$1+$1,$6,$7,$8,$9,0*
20,1,$1+$1,$8,$9,$2,$3,0*%
G04 Aperture macros list end*
%ADD10C,0.150000*%
%ADD11C,0.200000*%
%ADD12C,2.500000*%
%ADD13O,1.700000X1.700000*%
%ADD14C,1.700000*%
%ADD15C,1.300000*%
%ADD16C,2.050000*%
%ADD17O,1.550000X2.300000*%
%ADD18C,1.100000*%
%ADD19RoundRect,0.225000X0.225000X0.250000X-0.225000X0.250000X-0.225000X-0.250000X0.225000X-0.250000X0*%
%ADD20R,3.200000X2.850000*%
%ADD21R,0.400000X0.550000*%
%ADD22R,0.400000X0.410000*%
%ADD23R,2.750000X1.470000*%
%ADD24R,2.750000X0.250000*%
%ADD25C,1.000000*%
%ADD26R,1.650000X1.650000*%
%ADD27C,1.650000*%
%ADD28R,1.050000X0.600000*%
%ADD29RoundRect,0.200000X-0.200000X-0.275000X0.200000X-0.275000X0.200000X0.275000X-0.200000X0.275000X0*%
%ADD30R,0.300000X1.475000*%
%ADD31R,1.475000X0.300000*%
%ADD32R,1.700000X1.700000*%
%ADD33RoundRect,0.200000X0.275000X-0.200000X0.275000X0.200000X-0.275000X0.200000X-0.275000X-0.200000X0*%
%ADD34RoundRect,0.225000X-0.250000X0.225000X-0.250000X-0.225000X0.250000X-0.225000X0.250000X0.225000X0*%
%ADD35C,1.500000*%
%ADD36RoundRect,0.200000X0.200000X0.275000X-0.200000X0.275000X-0.200000X-0.275000X0.200000X-0.275000X0*%
%ADD37RoundRect,0.225000X-0.225000X-0.250000X0.225000X-0.250000X0.225000X0.250000X-0.225000X0.250000X0*%
%ADD38RoundRect,0.225000X0.250000X-0.225000X0.250000X0.225000X-0.250000X0.225000X-0.250000X-0.225000X0*%
%ADD39RoundRect,0.200000X-0.275000X0.200000X-0.275000X-0.200000X0.275000X-0.200000X0.275000X0.200000X0*%
%ADD40R,1.200000X1.200000*%
%ADD41R,2.500000X3.000000*%
%ADD42RoundRect,0.250000X0.450000X-0.262500X0.450000X0.262500X-0.450000X0.262500X-0.450000X-0.262500X0*%
%ADD43R,1.120000X1.220000*%
%ADD44R,0.500000X0.925000*%
%ADD45R,0.600000X0.800000*%
%ADD46R,4.410000X3.655000*%
%ADD47R,0.700000X0.300000*%
%ADD48R,1.000000X1.700000*%
%ADD49R,1.050000X0.500000*%
%ADD50R,1.900000X3.450000*%
%ADD51C,0.650000*%
%ADD52R,0.300000X1.150000*%
%ADD53R,2.180000X2.000000*%
%ADD54R,1.220000X1.120000*%
%ADD55R,0.300000X0.800000*%
%ADD56R,0.800000X0.300000*%
%ADD57R,2.700000X2.700000*%
%ADD58R,0.750000X0.400000*%
%ADD59R,0.400000X0.530000*%
%ADD60R,2.400000X2.450000*%
%ADD61R,0.300000X0.750000*%
%ADD62R,1.730000X1.850000*%
%ADD63R,1.425000X0.450000*%
%ADD64R,1.680000X1.880000*%
%ADD65R,4.250000X2.100000*%
%ADD66R,4.240000X3.810000*%
%ADD67R,0.600000X1.050000*%
%ADD68R,1.200000X0.600000*%
%ADD69R,2.500000X2.400000*%
%ADD70R,0.600000X0.350000*%
%ADD71R,1.100000X1.700000*%
G04 APERTURE END LIST*
D10*
X172206790Y-109727704D02*
G75*
G03*
X172168692Y-109174990I-176990J265470D01*
G01*
X172766904Y-109750093D02*
G75*
G03*
X172788131Y-110312398I183096J-274641D01*
G01*
X171596701Y-109737570D02*
G75*
G03*
X171617975Y-110299946I183099J-274664D01*
G01*
X171606790Y-109727704D02*
G75*
G03*
X171568692Y-109174990I-176990J265470D01*
G01*
X172196701Y-109737570D02*
G75*
G03*
X172217975Y-110299946I183099J-274664D01*
G01*
X172776995Y-109740230D02*
G75*
G03*
X172738848Y-109187442I-176995J265496D01*
G01*
X172950000Y-112824734D02*
X171250000Y-112824734D01*
X171250000Y-110624734D01*
X172950000Y-110624734D01*
X172950000Y-112824734D01*
G36*
X172950000Y-112824734D02*
G01*
X171250000Y-112824734D01*
X171250000Y-110624734D01*
X172950000Y-110624734D01*
X172950000Y-112824734D01*
G37*
D11*
X171301968Y-111264105D02*
G75*
G03*
X171250000Y-112124732I-351968J-410629D01*
G01*
X194343482Y-148522191D02*
X194295863Y-148474572D01*
X194295863Y-148474572D02*
X194200625Y-148426953D01*
X194200625Y-148426953D02*
X193962530Y-148426953D01*
X193962530Y-148426953D02*
X193867292Y-148474572D01*
X193867292Y-148474572D02*
X193819673Y-148522191D01*
X193819673Y-148522191D02*
X193772054Y-148617429D01*
X193772054Y-148617429D02*
X193772054Y-148712667D01*
X193772054Y-148712667D02*
X193819673Y-148855524D01*
X193819673Y-148855524D02*
X194391101Y-149426953D01*
X194391101Y-149426953D02*
X193772054Y-149426953D01*
X193153006Y-148426953D02*
X193057768Y-148426953D01*
X193057768Y-148426953D02*
X192962530Y-148474572D01*
X192962530Y-148474572D02*
X192914911Y-148522191D01*
X192914911Y-148522191D02*
X192867292Y-148617429D01*
X192867292Y-148617429D02*
X192819673Y-148807905D01*
X192819673Y-148807905D02*
X192819673Y-149046000D01*
X192819673Y-149046000D02*
X192867292Y-149236476D01*
X192867292Y-149236476D02*
X192914911Y-149331714D01*
X192914911Y-149331714D02*
X192962530Y-149379334D01*
X192962530Y-149379334D02*
X193057768Y-149426953D01*
X193057768Y-149426953D02*
X193153006Y-149426953D01*
X193153006Y-149426953D02*
X193248244Y-149379334D01*
X193248244Y-149379334D02*
X193295863Y-149331714D01*
X193295863Y-149331714D02*
X193343482Y-149236476D01*
X193343482Y-149236476D02*
X193391101Y-149046000D01*
X193391101Y-149046000D02*
X193391101Y-148807905D01*
X193391101Y-148807905D02*
X193343482Y-148617429D01*
X193343482Y-148617429D02*
X193295863Y-148522191D01*
X193295863Y-148522191D02*
X193248244Y-148474572D01*
X193248244Y-148474572D02*
X193153006Y-148426953D01*
X192438720Y-148522191D02*
X192391101Y-148474572D01*
X192391101Y-148474572D02*
X192295863Y-148426953D01*
X192295863Y-148426953D02*
X192057768Y-148426953D01*
X192057768Y-148426953D02*
X191962530Y-148474572D01*
X191962530Y-148474572D02*
X191914911Y-148522191D01*
X191914911Y-148522191D02*
X191867292Y-148617429D01*
X191867292Y-148617429D02*
X191867292Y-148712667D01*
X191867292Y-148712667D02*
X191914911Y-148855524D01*
X191914911Y-148855524D02*
X192486339Y-149426953D01*
X192486339Y-149426953D02*
X191867292Y-149426953D01*
X191010149Y-148760286D02*
X191010149Y-149426953D01*
X191248244Y-148379334D02*
X191486339Y-149093619D01*
X191486339Y-149093619D02*
X190867292Y-149093619D01*
X190486339Y-149046000D02*
X189724435Y-149046000D01*
X189057768Y-148426953D02*
X188962530Y-148426953D01*
X188962530Y-148426953D02*
X188867292Y-148474572D01*
X188867292Y-148474572D02*
X188819673Y-148522191D01*
X188819673Y-148522191D02*
X188772054Y-148617429D01*
X188772054Y-148617429D02*
X188724435Y-148807905D01*
X188724435Y-148807905D02*
X188724435Y-149046000D01*
X188724435Y-149046000D02*
X188772054Y-149236476D01*
X188772054Y-149236476D02*
X188819673Y-149331714D01*
X188819673Y-149331714D02*
X188867292Y-149379334D01*
X188867292Y-149379334D02*
X188962530Y-149426953D01*
X188962530Y-149426953D02*
X189057768Y-149426953D01*
X189057768Y-149426953D02*
X189153006Y-149379334D01*
X189153006Y-149379334D02*
X189200625Y-149331714D01*
X189200625Y-149331714D02*
X189248244Y-149236476D01*
X189248244Y-149236476D02*
X189295863Y-149046000D01*
X189295863Y-149046000D02*
X189295863Y-148807905D01*
X189295863Y-148807905D02*
X189248244Y-148617429D01*
X189248244Y-148617429D02*
X189200625Y-148522191D01*
X189200625Y-148522191D02*
X189153006Y-148474572D01*
X189153006Y-148474572D02*
X189057768Y-148426953D01*
X187819673Y-148426953D02*
X188295863Y-148426953D01*
X188295863Y-148426953D02*
X188343482Y-148903143D01*
X188343482Y-148903143D02*
X188295863Y-148855524D01*
X188295863Y-148855524D02*
X188200625Y-148807905D01*
X188200625Y-148807905D02*
X187962530Y-148807905D01*
X187962530Y-148807905D02*
X187867292Y-148855524D01*
X187867292Y-148855524D02*
X187819673Y-148903143D01*
X187819673Y-148903143D02*
X187772054Y-148998381D01*
X187772054Y-148998381D02*
X187772054Y-149236476D01*
X187772054Y-149236476D02*
X187819673Y-149331714D01*
X187819673Y-149331714D02*
X187867292Y-149379334D01*
X187867292Y-149379334D02*
X187962530Y-149426953D01*
X187962530Y-149426953D02*
X188200625Y-149426953D01*
X188200625Y-149426953D02*
X188295863Y-149379334D01*
X188295863Y-149379334D02*
X188343482Y-149331714D01*
X173493483Y-149141238D02*
X173017293Y-149141238D01*
X173588721Y-149426953D02*
X173255388Y-148426953D01*
X173255388Y-148426953D02*
X172922055Y-149426953D01*
X172683959Y-149426953D02*
X172160150Y-148760286D01*
X172683959Y-148760286D02*
X172160150Y-149426953D01*
X171874435Y-149426953D02*
X171350626Y-148760286D01*
X171874435Y-148760286D02*
X171350626Y-149426953D01*
X171017292Y-149141238D02*
X170541102Y-149141238D01*
X171112530Y-149426953D02*
X170779197Y-148426953D01*
X170779197Y-148426953D02*
X170445864Y-149426953D01*
X170207768Y-149426953D02*
X169683959Y-148760286D01*
X170207768Y-148760286D02*
X169683959Y-149426953D01*
X169398244Y-149426953D02*
X168874435Y-148760286D01*
X169398244Y-148760286D02*
X168874435Y-149426953D01*
D12*
%TO.C,H4*%
X197150000Y-70800000D03*
%TD*%
%TO.C,H3*%
X164150000Y-70700000D03*
%TD*%
D13*
%TO.C,U1*%
X188290000Y-124253734D03*
X185750000Y-124253734D03*
X183210000Y-124253734D03*
X180670000Y-124253734D03*
X178130000Y-124253734D03*
X175590000Y-124253734D03*
D14*
X173050000Y-124253734D03*
%TD*%
D12*
%TO.C,H2*%
X197150000Y-147174734D03*
%TD*%
D15*
%TO.C,U2*%
X168400000Y-135574734D03*
D16*
X170400000Y-135574734D03*
D17*
X170400000Y-140074734D03*
D18*
X172900000Y-135574734D03*
%TD*%
D12*
%TO.C,H1*%
X164150000Y-147174734D03*
%TD*%
D19*
%TO.C,C23*%
X180675000Y-126774734D03*
X179125000Y-126774734D03*
%TD*%
D20*
%TO.C,L1*%
X166550000Y-80724734D03*
X166550000Y-86424734D03*
%TD*%
D21*
%TO.C,Q2*%
X198850000Y-131964734D03*
X198200000Y-131964734D03*
X197550000Y-131964734D03*
X196900000Y-131964734D03*
D22*
X198850000Y-129094734D03*
X198200000Y-129094734D03*
D23*
X197875000Y-130284734D03*
D24*
X197875000Y-129424734D03*
D22*
X197550000Y-129094734D03*
X196900000Y-129094734D03*
%TD*%
D25*
%TO.C,TP2*%
X185577179Y-120574734D03*
%TD*%
%TO.C,TP6*%
X170150000Y-116174734D03*
%TD*%
D19*
%TO.C,C6*%
X181675000Y-104424734D03*
X180125000Y-104424734D03*
%TD*%
D26*
%TO.C,J2*%
X196400000Y-106174734D03*
D27*
X196400000Y-102674734D03*
X196400000Y-99174734D03*
X196400000Y-95674734D03*
X196400000Y-92174734D03*
X196400000Y-88674734D03*
X196400000Y-85174734D03*
X196400000Y-81674734D03*
X196400000Y-78174734D03*
%TD*%
D25*
%TO.C,TP9*%
X190950000Y-109924734D03*
%TD*%
D28*
%TO.C,D6*%
X193912500Y-115709734D03*
X193912500Y-117609734D03*
X191712500Y-116659734D03*
%TD*%
D29*
%TO.C,R30*%
X172975000Y-131374734D03*
X174625000Y-131374734D03*
%TD*%
%TO.C,R7*%
X171225000Y-85574734D03*
X172875000Y-85574734D03*
%TD*%
D30*
%TO.C,IC4*%
X178500000Y-107836734D03*
X179000000Y-107836734D03*
X179500000Y-107836734D03*
X180000000Y-107836734D03*
X180500000Y-107836734D03*
X181000000Y-107836734D03*
X181500000Y-107836734D03*
X182000000Y-107836734D03*
X182500000Y-107836734D03*
X183000000Y-107836734D03*
X183500000Y-107836734D03*
X184000000Y-107836734D03*
D31*
X185488000Y-109324734D03*
X185488000Y-109824734D03*
X185488000Y-110324734D03*
X185488000Y-110824734D03*
X185488000Y-111324734D03*
X185488000Y-111824734D03*
X185488000Y-112324734D03*
X185488000Y-112824734D03*
X185488000Y-113324734D03*
X185488000Y-113824734D03*
X185488000Y-114324734D03*
X185488000Y-114824734D03*
D30*
X184000000Y-116312734D03*
X183500000Y-116312734D03*
X183000000Y-116312734D03*
X182500000Y-116312734D03*
X182000000Y-116312734D03*
X181500000Y-116312734D03*
X181000000Y-116312734D03*
X180500000Y-116312734D03*
X180000000Y-116312734D03*
X179500000Y-116312734D03*
X179000000Y-116312734D03*
X178500000Y-116312734D03*
D31*
X177012000Y-114824734D03*
X177012000Y-114324734D03*
X177012000Y-113824734D03*
X177012000Y-113324734D03*
X177012000Y-112824734D03*
X177012000Y-112324734D03*
X177012000Y-111824734D03*
X177012000Y-111324734D03*
X177012000Y-110824734D03*
X177012000Y-110324734D03*
X177012000Y-109824734D03*
X177012000Y-109324734D03*
%TD*%
D32*
%TO.C,J3*%
X196475000Y-124274734D03*
D13*
X193935000Y-124274734D03*
%TD*%
D33*
%TO.C,R37*%
X168650000Y-140799734D03*
X168650000Y-139149734D03*
%TD*%
D34*
%TO.C,C32*%
X174900000Y-81149734D03*
X174900000Y-82699734D03*
%TD*%
D29*
%TO.C,FB1*%
X187400000Y-116224734D03*
X189050000Y-116224734D03*
%TD*%
%TO.C,R8*%
X171225000Y-87074734D03*
X172875000Y-87074734D03*
%TD*%
%TO.C,R15*%
X189025000Y-134224734D03*
X190675000Y-134224734D03*
%TD*%
D33*
%TO.C,R25*%
X197062500Y-117234734D03*
X197062500Y-115584734D03*
%TD*%
D35*
%TO.C,FID3*%
X191650000Y-75674734D03*
%TD*%
D36*
%TO.C,R11*%
X172875000Y-84074734D03*
X171225000Y-84074734D03*
%TD*%
D37*
%TO.C,C11*%
X189075000Y-138924734D03*
X190625000Y-138924734D03*
%TD*%
D19*
%TO.C,C7*%
X172825000Y-90074734D03*
X171275000Y-90074734D03*
%TD*%
D38*
%TO.C,C5*%
X169550000Y-78074734D03*
X169550000Y-76524734D03*
%TD*%
D32*
%TO.C,J4*%
X162650000Y-109484734D03*
D13*
X162650000Y-112024734D03*
X162650000Y-114564734D03*
X162650000Y-117104734D03*
X162650000Y-119644734D03*
X162650000Y-122184734D03*
%TD*%
D37*
%TO.C,C16*%
X184875000Y-117724734D03*
X186425000Y-117724734D03*
%TD*%
D39*
%TO.C,R28*%
X168750000Y-94949734D03*
X168750000Y-96599734D03*
%TD*%
%TO.C,R14*%
X192100000Y-136599734D03*
X192100000Y-138249734D03*
%TD*%
D40*
%TO.C,D10*%
X186950000Y-85974734D03*
X189750000Y-85974734D03*
%TD*%
D29*
%TO.C,R36*%
X172975000Y-136884734D03*
X174625000Y-136884734D03*
%TD*%
D41*
%TO.C,LS1*%
X166250000Y-127674734D03*
X166250000Y-135674734D03*
%TD*%
D25*
%TO.C,TP15*%
X187400000Y-127674734D03*
%TD*%
D19*
%TO.C,C30*%
X184425000Y-84924734D03*
X182875000Y-84924734D03*
%TD*%
D37*
%TO.C,C35*%
X182075000Y-76174734D03*
X183625000Y-76174734D03*
%TD*%
D25*
%TO.C,TP8*%
X185850000Y-131924734D03*
%TD*%
D42*
%TO.C,R45*%
X189750000Y-104199734D03*
X189750000Y-102374734D03*
%TD*%
D43*
%TO.C,D3*%
X189150000Y-141374734D03*
X189150000Y-144374734D03*
%TD*%
D25*
%TO.C,TP4*%
X170150000Y-113924734D03*
%TD*%
D36*
%TO.C,R1*%
X190675000Y-92774734D03*
X189025000Y-92774734D03*
%TD*%
%TO.C,R32*%
X180725000Y-128274734D03*
X179075000Y-128274734D03*
%TD*%
D19*
%TO.C,C14*%
X178625000Y-106074734D03*
X177075000Y-106074734D03*
%TD*%
D44*
%TO.C,U3*%
X189850000Y-82874734D03*
X188580000Y-82874734D03*
X187310000Y-82874734D03*
X186040000Y-82874734D03*
D45*
X189850000Y-77084734D03*
X188580000Y-77084734D03*
D46*
X187945000Y-79309734D03*
D45*
X187310000Y-77084734D03*
X186040000Y-77084734D03*
%TD*%
D33*
%TO.C,R23*%
X165650000Y-140799734D03*
X165650000Y-139149734D03*
%TD*%
D47*
%TO.C,IC2*%
X182925000Y-99924734D03*
X182925000Y-100424734D03*
X182925000Y-100924734D03*
X182925000Y-101424734D03*
X180825000Y-101424734D03*
X180825000Y-100924734D03*
X180825000Y-100424734D03*
X180825000Y-99924734D03*
D48*
X181875000Y-100674734D03*
%TD*%
D37*
%TO.C,C19*%
X187450000Y-114724734D03*
X189000000Y-114724734D03*
%TD*%
D36*
%TO.C,R31*%
X180725000Y-131274734D03*
X179075000Y-131274734D03*
%TD*%
D28*
%TO.C,D8*%
X193912500Y-120209734D03*
X193912500Y-122109734D03*
X191712500Y-121159734D03*
%TD*%
D33*
%TO.C,R18*%
X195562500Y-121734734D03*
X195562500Y-120084734D03*
%TD*%
D39*
%TO.C,R34*%
X167150000Y-139149734D03*
X167150000Y-140799734D03*
%TD*%
D35*
%TO.C,FID1*%
X168150000Y-110174734D03*
%TD*%
D32*
%TO.C,TP13*%
X162650000Y-124724734D03*
%TD*%
D19*
%TO.C,C8*%
X172825000Y-88574734D03*
X171275000Y-88574734D03*
%TD*%
%TO.C,C25*%
X197087500Y-118659734D03*
X195537500Y-118659734D03*
%TD*%
D25*
%TO.C,TP16*%
X195400000Y-127674734D03*
%TD*%
D29*
%TO.C,R26*%
X189075000Y-127674734D03*
X190725000Y-127674734D03*
%TD*%
D33*
%TO.C,R22*%
X197062500Y-112734734D03*
X197062500Y-111084734D03*
%TD*%
D36*
%TO.C,R12*%
X194975000Y-140924734D03*
X193325000Y-140924734D03*
%TD*%
D49*
%TO.C,D2*%
X187600000Y-95124734D03*
X187600000Y-96424734D03*
X185500000Y-95774734D03*
%TD*%
D50*
%TO.C,R42*%
X189350000Y-89174734D03*
X183950000Y-89174734D03*
%TD*%
D36*
%TO.C,R10*%
X183725000Y-96174734D03*
X182075000Y-96174734D03*
%TD*%
D40*
%TO.C,D9*%
X180650000Y-85924734D03*
X177850000Y-85924734D03*
%TD*%
D37*
%TO.C,C34*%
X182075000Y-77574734D03*
X183625000Y-77574734D03*
%TD*%
D36*
%TO.C,R5*%
X190675000Y-95574734D03*
X189025000Y-95574734D03*
%TD*%
D51*
%TO.C,J1*%
X183540000Y-143821734D03*
X177760000Y-143821734D03*
D52*
X184000000Y-142746734D03*
X183200000Y-142746734D03*
X181900000Y-142746734D03*
X180900000Y-142746734D03*
X180400000Y-142746734D03*
X179400000Y-142746734D03*
X178100000Y-142746734D03*
X177300000Y-142746734D03*
X177600000Y-142746734D03*
X178400000Y-142746734D03*
X178900000Y-142746734D03*
X179900000Y-142746734D03*
X181400000Y-142746734D03*
X182400000Y-142746734D03*
X182900000Y-142746734D03*
X183700000Y-142746734D03*
D53*
X185760000Y-147251734D03*
X185760000Y-143321734D03*
X175540000Y-147251734D03*
X175540000Y-143321734D03*
%TD*%
D36*
%TO.C,R33*%
X167375000Y-98074734D03*
X165725000Y-98074734D03*
%TD*%
D25*
%TO.C,TP12*%
X176750000Y-92674734D03*
%TD*%
D37*
%TO.C,C12*%
X189075000Y-137414734D03*
X190625000Y-137414734D03*
%TD*%
D34*
%TO.C,C17*%
X175650000Y-106899734D03*
X175650000Y-108449734D03*
%TD*%
D37*
%TO.C,C13*%
X189075000Y-135924734D03*
X190625000Y-135924734D03*
%TD*%
D38*
%TO.C,C2*%
X164750000Y-90924734D03*
X164750000Y-89374734D03*
%TD*%
D19*
%TO.C,C28*%
X174575000Y-132874734D03*
X173025000Y-132874734D03*
%TD*%
D29*
%TO.C,R21*%
X165725000Y-93474734D03*
X167375000Y-93474734D03*
%TD*%
D37*
%TO.C,C21*%
X173025000Y-129874734D03*
X174575000Y-129874734D03*
%TD*%
D33*
%TO.C,R29*%
X197062500Y-121734734D03*
X197062500Y-120084734D03*
%TD*%
D29*
%TO.C,R17*%
X186225000Y-133974734D03*
X184575000Y-133974734D03*
%TD*%
D36*
%TO.C,R38*%
X176475000Y-84074734D03*
X174825000Y-84074734D03*
%TD*%
D19*
%TO.C,C29*%
X174575000Y-138374734D03*
X173025000Y-138374734D03*
%TD*%
D54*
%TO.C,D4*%
X183550000Y-79474734D03*
X180550000Y-79474734D03*
%TD*%
D29*
%TO.C,R3*%
X183050000Y-102924734D03*
X184700000Y-102924734D03*
%TD*%
D55*
%TO.C,IC6*%
X186650000Y-139674734D03*
X186150000Y-139674734D03*
X185650000Y-139674734D03*
X185150000Y-139674734D03*
X184650000Y-139674734D03*
X184150000Y-139674734D03*
D56*
X183400000Y-138924734D03*
X183400000Y-138424734D03*
X183400000Y-137924734D03*
X183400000Y-137424734D03*
X183400000Y-136924734D03*
X183400000Y-136424734D03*
D55*
X184150000Y-135674734D03*
X184650000Y-135674734D03*
X185150000Y-135674734D03*
X185650000Y-135674734D03*
X186150000Y-135674734D03*
X186650000Y-135674734D03*
D56*
X187400000Y-136424734D03*
X187400000Y-136924734D03*
X187400000Y-137424734D03*
X187400000Y-137924734D03*
X187400000Y-138424734D03*
X187400000Y-138924734D03*
D57*
X185400000Y-137674734D03*
%TD*%
D38*
%TO.C,C9*%
X196400000Y-142449734D03*
X196400000Y-140899734D03*
%TD*%
D25*
%TO.C,TP7*%
X187800000Y-131924734D03*
%TD*%
D58*
%TO.C,Q1*%
X193625000Y-138899734D03*
X193625000Y-138249734D03*
X193625000Y-137599734D03*
X193625000Y-136949734D03*
D59*
X195150000Y-139414734D03*
D60*
X195850000Y-137924734D03*
D59*
X195150000Y-136434734D03*
%TD*%
D25*
%TO.C,TP3*%
X174450000Y-97674734D03*
%TD*%
D19*
%TO.C,C22*%
X180675000Y-129774734D03*
X179125000Y-129774734D03*
%TD*%
D61*
%TO.C,IC7*%
X194650000Y-133374734D03*
X194150000Y-133374734D03*
X193650000Y-133374734D03*
X193150000Y-133374734D03*
X193150000Y-130374734D03*
X193650000Y-130374734D03*
X194150000Y-130374734D03*
X194650000Y-130374734D03*
D62*
X193900000Y-131874734D03*
%TD*%
D63*
%TO.C,IC8*%
X178826000Y-83374734D03*
X178826000Y-82724734D03*
X178826000Y-82074734D03*
X178826000Y-81424734D03*
X183250000Y-81424734D03*
X183250000Y-82074734D03*
X183250000Y-82724734D03*
X183250000Y-83374734D03*
D64*
X181038000Y-82399734D03*
%TD*%
D38*
%TO.C,C10*%
X191150000Y-144349734D03*
X191150000Y-142799734D03*
%TD*%
D19*
%TO.C,C15*%
X177625000Y-117724734D03*
X176075000Y-117724734D03*
%TD*%
D33*
%TO.C,R19*%
X195562500Y-117234734D03*
X195562500Y-115584734D03*
%TD*%
D65*
%TO.C,C37*%
X179150000Y-73974734D03*
X171850000Y-73974734D03*
%TD*%
D28*
%TO.C,D7*%
X172500000Y-94774734D03*
X172500000Y-96674734D03*
X170300000Y-95724734D03*
%TD*%
D37*
%TO.C,C4*%
X183100000Y-104424734D03*
X184650000Y-104424734D03*
%TD*%
D34*
%TO.C,C1*%
X169850000Y-89374734D03*
X169850000Y-90924734D03*
%TD*%
D29*
%TO.C,R9*%
X182125000Y-98174734D03*
X183775000Y-98174734D03*
%TD*%
D37*
%TO.C,C18*%
X187450000Y-113224734D03*
X189000000Y-113224734D03*
%TD*%
D19*
%TO.C,C24*%
X167325000Y-96574734D03*
X165775000Y-96574734D03*
%TD*%
D25*
%TO.C,TP11*%
X185050000Y-107074734D03*
%TD*%
D49*
%TO.C,D1*%
X187600000Y-92174734D03*
X187600000Y-93474734D03*
X185500000Y-92824734D03*
%TD*%
D66*
%TO.C,F1*%
X184560000Y-70574734D03*
X190940000Y-70574734D03*
%TD*%
D25*
%TO.C,TP5*%
X170150000Y-118424734D03*
%TD*%
D67*
%TO.C,Q3*%
X164100000Y-141074734D03*
X162200000Y-141074734D03*
X163150000Y-138874734D03*
%TD*%
D68*
%TO.C,IC3*%
X165400000Y-77974734D03*
X165400000Y-77024734D03*
X165400000Y-76074734D03*
X167900000Y-76074734D03*
X167900000Y-77024734D03*
X167900000Y-77974734D03*
%TD*%
%TO.C,IC9*%
X187850000Y-108124734D03*
X187850000Y-107174734D03*
X187850000Y-106224734D03*
X190350000Y-106224734D03*
X190350000Y-108124734D03*
%TD*%
D19*
%TO.C,C31*%
X184450000Y-86434734D03*
X182900000Y-86434734D03*
%TD*%
D33*
%TO.C,R6*%
X182150000Y-94749734D03*
X182150000Y-93099734D03*
%TD*%
D29*
%TO.C,R13*%
X193325000Y-142424734D03*
X194975000Y-142424734D03*
%TD*%
D39*
%TO.C,R2*%
X184625000Y-99849734D03*
X184625000Y-101499734D03*
%TD*%
D34*
%TO.C,C33*%
X176400000Y-81149734D03*
X176400000Y-82699734D03*
%TD*%
D69*
%TO.C,F2*%
X187150000Y-103974734D03*
X187150000Y-98574734D03*
%TD*%
D34*
%TO.C,C3*%
X163750000Y-76549734D03*
X163750000Y-78099734D03*
%TD*%
D25*
%TO.C,TP10*%
X179550000Y-102424734D03*
%TD*%
D19*
%TO.C,C26*%
X197087500Y-114159734D03*
X195537500Y-114159734D03*
%TD*%
D28*
%TO.C,D5*%
X193912500Y-111209734D03*
X193912500Y-113109734D03*
X191712500Y-112159734D03*
%TD*%
D25*
%TO.C,TP14*%
X170150000Y-120674734D03*
%TD*%
D36*
%TO.C,R35*%
X174625000Y-134374734D03*
X172975000Y-134374734D03*
%TD*%
D25*
%TO.C,TP1*%
X187522699Y-120569932D03*
%TD*%
D36*
%TO.C,R27*%
X193725000Y-127674734D03*
X192075000Y-127674734D03*
%TD*%
D33*
%TO.C,R20*%
X195562500Y-112734734D03*
X195562500Y-111084734D03*
%TD*%
D35*
%TO.C,FID2*%
X174150000Y-140174734D03*
%TD*%
D70*
%TO.C,IC1*%
X166250000Y-90724734D03*
X166250000Y-90074734D03*
X166250000Y-89424734D03*
X168350000Y-89424734D03*
X168350000Y-90074734D03*
X168350000Y-90724734D03*
D71*
X167300000Y-90074734D03*
%TD*%
D37*
%TO.C,C20*%
X187875000Y-117724734D03*
X189425000Y-117724734D03*
%TD*%
D39*
%TO.C,R4*%
X183650000Y-93099734D03*
X183650000Y-94749734D03*
%TD*%
D25*
%TO.C,TP17*%
X178150000Y-95174734D03*
%TD*%
D36*
%TO.C,R24*%
X167375000Y-95074734D03*
X165725000Y-95074734D03*
%TD*%
D42*
%TO.C,R44*%
X189750000Y-100974734D03*
X189750000Y-99149734D03*
%TD*%
D68*
%TO.C,IC5*%
X180150000Y-137874734D03*
X180150000Y-138824734D03*
X180150000Y-139774734D03*
X177650000Y-139774734D03*
X177650000Y-138824734D03*
X177650000Y-137874734D03*
%TD*%
D19*
%TO.C,C27*%
X197087500Y-109659734D03*
X195537500Y-109659734D03*
%TD*%
M02*
